subject01_walk1_grf.mot																		
version=1																		
nRows=66							0.05											
nColumns=19																		
inDegrees=yes																		
endheader																		
time	ground_force_vx	ground_force_vy	ground_force_vz	ground_force_px	ground_force_py	ground_force_pz	1_ground_force_vx	1_ground_force_vy	1_ground_force_vz	1_ground_force_px	1_ground_force_py	1_ground_force_pz	ground_torque_x	ground_torque_y	ground_torque_z	1_ground_torque_x	1_ground_torque_y	1_ground_torque_z
1.875	8.833387949	60.02746092	5.053609887	0.80236992	-0.0075	0.14528556	77.99526018	446.3921744	24.1920392	0.31448531	-0.0075	-0.17069636	0.133734183	0.629865206	0.77472313	0	3.105062487	0
1.8767	8.559683756	64.84335593	5.960522493	0.80275634	-0.0075	0.14527315	78.49344913	443.7252119	23.81961663	0.31305619	-0.0075	-0.17064901	0.130819934	0.638132347	0.752359052	0	3.069049942	0
1.8783	8.083309104	69.69406858	6.90945494	0.803113	-0.0075	0.14526171	78.93216154	440.9051619	23.44241163	0.31165459	-0.0075	-0.17060635	0.125284108	0.634489918	0.720331595	0	3.030072943	0
1.88	7.402548656	74.54886299	7.886796418	0.80343971	-0.0075	0.14525125	79.30879421	437.9263467	23.05988233	0.31027508	-0.0075	-0.17056677	0.117290051	0.618829637	0.679348138	0	2.988676317	0
1.8817	6.521126564	79.37900171	8.877858962	0.80373625	-0.0075	0.14524177	79.62220952	434.7831314	22.6712656	0.30891168	-0.0075	-0.17052822	0.107129986	0.591512794	0.630289505	0	2.945195199	0
1.8833	5.448229287	84.15849291	9.86742295	0.80400243	-0.0075	0.14523328	79.87270392	431.4700554	22.27551151	0.3075582	-0.0075	-0.17048842	0.095206547	0.553425141	0.574188457	0	2.899756292	0
1.885	4.198145175	88.86475149	10.84027269	0.80423805	-0.0075	0.14522578	80.0619465	427.9820703	21.87140566	0.30620853	-0.0075	-0.17044487	0.082012371	0.505881922	0.512149929	0	2.852217278	0
1.8867	2.78985888	93.47911687	11.7817153	0.80444291	-0.0075	0.14521927	80.19290371	424.3146247	21.45756582	0.30485702	-0.0075	-0.17039492	0.068099814	0.450602382	0.445307897	0	2.802211429	0
1.8883	1.246250181	97.98718137	12.67816494	0.8046168	-0.0075	0.14521376	80.26958835	420.4638865	21.03250435	0.30349876	-0.0075	-0.17033589	0.054045049	0.389601627	0.374763029	0	2.749137528	0
1.89	-0.406620792	102.378975	13.5175494	0.80475953	-0.0075	0.14520924	80.29685944	416.4267734	20.59463587	0.30212985	-0.0075	-0.17026517	0.040419138	0.32513422	0.301584888	0	2.69223764	0
1.8917	-2.140633643	106.6489683	14.28969494	0.80487088	-0.0075	0.14520572	80.28012899	412.2010584	20.14237133	0.30074753	-0.0075	-0.17018019	0.027768084	0.25951864	0.226727858	0	2.63063493	0
1.8933	-3.926624123	110.7959489	14.98659561	0.80495068	-0.0075	0.1452032	80.22501863	407.7854199	19.67409851	0.2993503	-0.0075	-0.17007858	0.016572119	0.195058909	0.151048417	0	2.563437854	0
1.895	-5.73548397	114.8227215	15.6025343	0.8049987	-0.0075	0.14520169	80.13705209	403.1794105	19.18822065	0.29793794	-0.0075	-0.16995814	0.007223377	0.133944235	0.075277665	0	2.489799554	0
1.8967	-7.539322724	118.7357535	16.134103	0.80501475	-0.0075	0.14520118	80.02125065	398.3834996	18.68324921	0.29651143	-0.0075	-0.16981691	0	0.078092373	0	0	2.409009798	0
1.8983	-9.312373324	122.5446775	16.58005985	0.80439223	-0.0075	0.14524205	79.8818307	393.3989632	18.1577642	0.29507276	-0.0075	-0.16965313	0	0.019439184	0	0	2.320603403	0
1.9	-11.03203118	126.261731	16.94112012	0.80378336	-0.0075	0.14526342	79.72186755	388.2279217	17.61052406	0.29362482	-0.0075	-0.16946529	0	-0.030880853	0	0	2.224394677	0
1.9017	-12.67950069	129.9011994	17.21961266	0.80318478	-0.0075	0.14526798	79.54306551	382.8732304	17.04044243	0.29217112	-0.0075	-0.16925212	0	-0.072043173	0	0	2.120582659	0
1.9033	-14.2404392	133.4787814	17.41910575	0.80259306	-0.0075	0.1452591	79.34553499	377.3385187	16.44668101	0.29071556	-0.0075	-0.16901258	0	-0.103718918	0	0	2.009751698	0
1.905	-15.7052288	137.0110507	17.54397	0.80200498	-0.0075	0.14524057	79.12768714	371.6281191	15.82866442	0.28926222	-0.0075	-0.16874588	0	-0.126022817	0	0	1.892916475	0
1.9067	-17.06912825	140.5148998	17.59894653	0.80141732	-0.0075	0.1452165	78.88621541	365.7470877	15.18614395	0.28781515	-0.0075	-0.16845148	0	-0.139507517	0	0	1.771478769	0
1.9083	-18.33213616	144.0070902	17.58876696	0.80082709	-0.0075	0.14519125	78.61612534	359.7012593	14.51926218	0.28637818	-0.0075	-0.16812909	0	-0.145116314	0	0	1.647186645	0
1.91	-19.49861753	147.5038526	17.51778172	0.80023138	-0.0075	0.1451692	78.31093106	353.4972092	13.82857254	0.28495482	-0.0075	-0.16777869	0	-0.144088796	0	0	1.522083558	0
1.9117	-20.57685181	151.0205655	17.38972174	0.79962737	-0.0075	0.14515468	77.96288161	347.1423935	13.11513223	0.28354816	-0.0075	-0.16740058	0	-0.137922078	0	0	1.398396858	0
1.9133	-21.578205	154.5715171	17.20751832	0.79901249	-0.0075	0.14515175	77.56334531	340.6451177	12.38047845	0.28216095	-0.0075	-0.16699541	0	-0.128236218	0	0	1.278455521	0
1.915	-22.51645542	158.1697503	16.97326764	0.79838424	-0.0075	0.14516419	77.10316723	334.0146373	11.6267115	0.28079552	-0.0075	-0.16656417	0	-0.116739568	0	0	1.164557972	0
1.9167	-23.40678681	161.826977	16.68824208	0.79774034	-0.0075	0.14519534	76.57320021	327.2611373	10.85644438	0.27945401	-0.0075	-0.16610827	0	-0.105095092	0	0	1.058874902	0
1.9183	-24.26495442	165.553558	16.35306848	0.79707863	-0.0075	0.14524811	75.96474167	320.3957506	10.07284683	0.27813833	-0.0075	-0.16562952	0	-0.094863619	0	0	0.963289053	0
1.92	-25.10633324	169.3585562	15.96792747	0.7963973	-0.0075	0.14532499	75.2700323	313.4305257	9.279569926	0.27685029	-0.0075	-0.16513016	0	-0.087412061	0	0	0.879336912	0
1.9217	-25.94512815	173.2498032	15.53281299	0.79569482	-0.0075	0.14542798	74.48274133	306.3783314	8.480670988	0.27559174	-0.0075	-0.16461292	0	-0.083865235	0	0	0.808132536	0
1.9233	-26.79372429	177.2340286	15.0478253	0.79496995	-0.0075	0.14555865	73.59835271	299.252744	7.680594835	0.27436453	-0.0075	-0.16408093	0	-0.085076078	0	0	0.750278841	0
1.925	-27.66206631	181.3169579	14.51344894	0.79422188	-0.0075	0.14571812	72.61452143	292.0678709	6.884013849	0.27317056	-0.0075	-0.16353771	0	-0.091574548	0	0	0.705888136	0
1.9267	-28.5573858	185.5034464	13.9308365	0.79345017	-0.0075	0.14590716	71.53127162	284.8382091	6.095757349	0.27201179	-0.0075	-0.16298717	0	-0.10360945	0	0	0.674568654	0
1.9283	-29.48391217	189.7975994	13.30195156	0.79265488	-0.0075	0.14612608	70.35114897	277.5783335	5.320677122	0.27089008	-0.0075	-0.16243345	0	-0.121126841	0	0	0.655463193	0
1.93	-30.44299871	194.2028784	12.62975797	0.79183647	-0.0075	0.14637492	69.07916912	270.3027286	4.563540446	0.26980707	-0.0075	-0.16188096	0	-0.143823342	0	0	0.647299093	0
1.9317	-31.43318202	198.7222232	11.91820135	0.79099594	-0.0075	0.14665341	67.72271051	263.0255208	3.828870935	0.26876408	-0.0075	-0.16133424	0	-0.171160023	0	0	0.648502026	0
1.9333	-32.45064116	203.358114	11.17214774	0.79013461	-0.0075	0.14696096	66.29121549	255.760222	3.12093121	0.26776184	-0.0075	-0.16079782	0	-0.202447354	0	0	0.6572519	0
1.935	-33.48959681	208.1126451	10.39724927	0.78925423	-0.0075	0.14729673	64.79585933	248.5195543	2.443596536	0.26680033	-0.0075	-0.16027614	0	-0.236880312	0	0	0.67161491	0
1.9367	-34.54289411	212.9875113	9.59971171	0.78835686	-0.0075	0.14765956	63.24908597	241.3152659	1.800260419	0.26587875	-0.0075	-0.15977357	0	-0.273594707	0	0	0.68967046	0
1.9383	-35.60267646	217.9840662	8.786022093	0.78744475	-0.0075	0.14804808	61.66409549	234.1580044	1.193890046	0.26499544	-0.0075	-0.15929415	0	-0.311765404	0	0	0.709563667	0
1.94	-36.66090256	223.1032716	7.9625915	0.78652037	-0.0075	0.14846063	60.05431745	227.0572315	0.626936253	0.26414784	-0.0075	-0.15884168	0	-0.350604627	0	0	0.729626183	0
1.9417	-37.71005611	228.3456989	7.135469212	0.78558626	-0.0075	0.14889539	58.4328187	220.0212385	0.101398673	0.26333268	-0.0075	-0.1584196	0	-0.389434546	0	0	0.748391819	0
1.9433	-38.74353758	233.7115197	6.309951204	0.78464503	-0.0075	0.1493503	56.81186241	213.0570927	-0.381167447	0.26254616	-0.0075	-0.15803098	0	-0.427688095	0	0	0.764662827	0
1.945	-39.75623479	239.2004163	5.490348325	0.78369917	-0.0075	0.14982321	55.20240259	206.1707732	-0.819573884	0.26178423	-0.0075	-0.15767843	0	-0.464962027	0	0	0.777505098	0
1.9467	-40.74470508	244.8115599	4.67974192	0.78275117	-0.0075	0.15031188	53.61376958	199.3672296	-1.213012825	0.261043	-0.0075	-0.15736425	0	-0.500978591	0	0	0.786274786	0
1.9483	-41.70743111	250.5434894	3.879850427	0.78180332	-0.0075	0.15081402	52.0533974	192.6505263	-1.560947571	0.26031912	-0.0075	-0.1570903	0	-0.535617862	0	0	0.790562735	0
1.95	-42.64480413	256.3940445	3.090965934	0.78085782	-0.0075	0.15132732	50.52668873	186.0239856	-1.86308366	0.2596102	-0.0075	-0.15685806	0	-0.568902464	0	0	0.790169054	0
1.9517	-43.55897512	262.3602544	2.311988167	0.77991676	-0.0075	0.1518495	49.03699646	179.4902865	-2.119402234	0.2589152	-0.0075	-0.1566687	0	-0.600934501	0	0	0.785063429	0
1.9533	-44.45372405	268.4382383	1.540536872	0.77898204	-0.0075	0.15237835	47.58570625	173.0516442	-2.330040171	0.25823467	-0.0075	-0.15652288	0	-0.63191158	0	0	0.775275708	0
1.955	-45.33398083	274.6230897	0.773153341	0.77805543	-0.0075	0.15291171	46.17246039	166.7098422	-2.495407698	0.25757086	-0.0075	-0.15642088	0	-0.662047145	0	0	0.760929188	0
1.9567	-46.20553954	280.9087672	0.005587944	0.77713855	-0.0075	0.15344759	44.79536917	160.4663798	-2.616169446	0.25692763	-0.0075	-0.15636248	0	-0.691576276	0	0	0.742172867	0
1.9583	-47.07449333	287.2879806	-0.766940047	0.77623289	-0.0075	0.15398403	43.45141985	154.322423	-2.693303941	0.25631016	-0.0075	-0.15634679	0	-0.720695154	0	0	0.719178843	0
1.96	-47.94687335	293.7520701	-1.549361699	0.77533966	-0.0075	0.1545192	42.13681485	148.2789104	-2.728141925	0.25572447	-0.0075	-0.15637216	0	-0.74955307	0	0	0.692120005	0
1.9617	-48.82811822	300.290913	-2.346444906	0.77446	-0.0075	0.15505129	40.84733018	142.3365494	-2.722467617	0.2551767	-0.0075	-0.15643612	0	-0.778224493	0	0	0.661225596	0
1.9633	-49.72270494	306.8928482	-3.162464322	0.77359473	-0.0075	0.15557849	39.57871531	136.4957659	-2.678517152	0.25467217	-0.0075	-0.15653511	0	-0.806687416	0	0	0.626733235	0
1.965	-50.63384147	313.5446496	-4.00090617	0.77274446	-0.0075	0.15609899	38.32694941	130.7567463	-2.599047153	0.25421424	-0.0075	-0.15666429	0	-0.834829401	0	0	0.588957316	0
1.9667	-51.56315467	320.2315313	-4.864221044	0.77190954	-0.0075	0.15661095	37.088521	125.1193792	-2.487384861	0.25380318	-0.0075	-0.15681756	0	-0.862411926	0	0	0.548331136	0
1.9683	-52.51066174	326.9372066	-5.753661926	0.77108992	-0.0075	0.15711246	35.86057245	119.5833345	-2.347314985	0.25343495	-0.0075	-0.15698717	0	-0.889131505	0	0	0.505376498	0
1.97	-53.47464297	333.6439851	-6.669146912	0.77028522	-0.0075	0.15760152	34.64101762	114.1480422	-2.183131784	0.2534503	-0.0075	-0.15698685	0	-0.914579344	0	0.020209712	0.453883841	-0.0399696
1.9717	-54.45180301	340.3329248	-7.609169703	0.76949466	-0.0075	0.15807608	33.4285433	108.8128359	-1.999487432	0.25349624	-0.0075	-0.15698588	0	-0.938313558	0	0.038190401	0.402185834	-0.077594503
1.9733	-55.4373349	346.9840496	-8.570865314	0.76871708	-0.0075	0.15853398	32.2225609	103.5769993	-1.801305593	0.25357256	-0.0075	-0.15698426	0	-0.959847518	0	0.05275357	0.351569119	-0.11509892
1.975	-56.42526798	353.5766259	-9.550010117	0.76795084	-0.0075	0.158973	31.02306284	98.43995837	-1.593606107	0.25367909	-0.0075	-0.15698201	0	-0.978719082	0	0.06282218	0.30335651	-0.154965918
1.9767	-57.40866728	360.0894951	-10.54116146	0.76719397	-0.0075	0.15939099	29.83046277	93.4014289	-1.381374326	0.25381564	-0.0075	-0.15697912	0	-0.994479836	0	0.067479708	0.258869835	-0.199772457
1.9783	-58.37999068	366.5014243	-11.53781455	0.7664441	-0.0075	0.15978579	28.6453995	88.46157086	-1.169324699	0.25398201	-0.0075	-0.15697559	0	-1.006737547	0	0.065996668	0.21932854	-0.252004324
1.98	-59.33147308	372.7915082	-12.53256643	0.76569848	-0.0075	0.16015542	27.46850568	83.62120093	-0.961727932	0.25417801	-0.0075	-0.15697144	0	-1.015206579	0	0.057867175	0.18579327	-0.313868597
1.9817	-60.25536096	378.9395244	-13.51732643	0.76495414	-0.0075	0.16049804	26.30029898	78.88191328	-0.762294465	0.25440346	-0.0075	-0.15696665	0	-1.019686825	0	0.042852508	0.159092573	-0.387074089
1.9833	-61.14435274	384.9263369	-14.48352273	0.76420783	-0.0075	0.16081209	25.14095766	74.24627349	-0.573940911	0.25465817	-0.0075	-0.15696124	0	-1.020133726	0	0.020983068	0.13972125	-0.472668026
